<mxfile host="app.diagrams.net" modified="2023-07-27T05:57:44.538Z" agent="Mozilla/5.0 (Macintosh; Intel Mac OS X 10_15_7) AppleWebKit/537.36 (KHTML, like Gecko) Chrome/114.0.0.0 Safari/537.36" version="21.6.3" etag="RG0eZvketPtt3zko6xq8" type="github">
  <diagram name="第 1 页" id="FHeRWwBa-66hsNk5aT9A">
    <mxGraphModel>
      <root>
        <mxCell id="0" />
        <mxCell id="1" parent="0" />
      </root>
    </mxGraphModel>
  </diagram>
</mxfile>
